<?xml version="1.0" encoding="utf-8"?>
<!-- Generator: Adobe Illustrator 24.1.2, SVG Export Plug-In . SVG Version: 6.00 Build 0)  -->
<svg version="1.1" xmlns="http://www.w3.org/2000/svg" xmlns:xlink="http://www.w3.org/1999/xlink" x="0px" y="0px"
	 viewBox="0 0 554 509" style="enable-background:new 0 0 554 509;" xml:space="preserve">
<style type="text/css">
	.st0{fill:none;stroke:#070000;stroke-width:6;stroke-miterlimit:10;}
	.st1{fill:none;stroke:#070000;stroke-miterlimit:10;}
</style>
<g id="Layer_2">
	<polyline class="st0" points="25,346 28,349 244,364 258,364 268.5,360.5 	"/>
	<polyline class="st0" points="257.5,363.5 257.5,460.5 243.5,460.5 29.5,438.5 22.5,435.5 22.5,345.5 	"/>
	<polyline class="st0" points="23.5,345.5 47.5,341.5 47.5,322.5 274.5,336.5 330.5,320.5 	"/>
	<line class="st0" x1="274.5" y1="336.5" x2="274.5" y2="354.5"/>
	<polyline class="st0" points="311.5,342.5 268.5,354.5 268.5,481.5 392.5,492.5 392.5,363.5 500.5,314.5 502.5,400.5 395.5,492.5 	
		"/>
	<line class="st0" x1="268.5" y1="356.9" x2="390.5" y2="364.5"/>
	<line class="st0" x1="339.5" y1="347.5" x2="416.5" y2="350.5"/>
	<line class="st0" x1="339.5" y1="210.5" x2="339.5" y2="345.5"/>
	<polyline class="st0" points="421.5,347.5 424.5,121.5 461.5,135.5 461.5,328.5 	"/>
	<path class="st0" d="M461.5,246.4l26,0.1l5,2l-1,40l-2,10c0,0,3,11,3,17"/>
	<path class="st0" d="M462.5,296.5c0,0,22,2,25,0"/>
	<line class="st0" x1="421.5" y1="121.5" x2="382.5" y2="122.5"/>
	<path class="st0" d="M74.5,214.5l165,4v93l-165-7c0,0-1,3-1-6s1-82,1-82"/>
	<line class="st0" x1="241.5" y1="314.5" x2="241.5" y2="329.5"/>
	<polyline class="st0" points="69.5,302.5 64.5,306.5 72.5,308.5 232.5,314.5 	"/>
	<polyline class="st0" points="61.5,308.5 61.5,314.5 236.5,322.5 	"/>
	<path class="st0" d="M47.5,318.5c0,0-1-3,3-4s8-1,8-1"/>
	<polyline class="st0" points="246.5,324.5 254.5,322.5 270.5,323.5 299.5,316.5 	"/>
	<line class="st0" x1="255.5" y1="218.5" x2="254.5" y2="320.5"/>
	<polyline class="st0" points="241.5,216.5 273.5,218.5 271.5,321.5 	"/>
	<path class="st0" d="M275.5,217.5c0,0,9,2,12,0h20l-2,75"/>
	<polyline class="st0" points="307.5,294.5 296.5,296.5 296.5,313.5 	"/>
	<line class="st0" x1="304.5" y1="301.5" x2="335.5" y2="302.5"/>
	<line class="st0" x1="302.5" y1="311.5" x2="336.5" y2="313.5"/>
	<polyline class="st0" points="116.5,207.5 116.5,214.5 135.5,214.5 135.5,207.5 	"/>
	<polyline class="st0" points="251.5,62.5 251.5,51.5 103.5,58.5 103.5,206.5 249.5,207.5 257.5,207.5 289.5,207.5 289.5,214.5 	"/>
	<polyline class="st0" points="243.5,161.5 243.5,59.5 107.5,64.5 109.5,197.5 236.5,197.5 	"/>
	<polyline class="st0" points="241.5,161.5 237.5,189.5 237.5,199.5 305.5,200.5 363.5,201.5 	"/>
	<line class="st0" x1="367.5" y1="59.5" x2="365.5" y2="140.5"/>
	<polyline class="st0" points="363.5,59.5 247.5,61.5 244.5,61.5 244.5,159.5 	"/>
	<polyline class="st0" points="300.5,59.5 300.5,43.5 330.5,45.5 330.5,57.5 	"/>
	<line class="st0" x1="333.5" y1="48.5" x2="342.5" y2="56.5"/>
	<polyline class="st0" points="369.5,59.5 382.5,65.5 381.5,140.5 	"/>
	<polyline class="st0" points="385.5,74.5 404.5,83.5 404.5,119.5 	"/>
	<path class="st0" d="M364,152l4-10h21l-2,19c0,0-4,5-4,10s-3,21-3,21l-18-1l3-24l-2-17"/>
	<path class="st0" d="M391,144l2,5l-2,14c0,0-4,7-6,7s-3,26-3,26l-6,1"/>
	<path class="st0" d="M374,192l0,4c0,0,0-1,0,1s0,3,0,3h-7l-1-4l-1-4"/>
	<path class="st0" d="M368,202c0,0-13,38-13,49s1,24,6,22s13,3,18-22s5-49,4-53"/>
	<path class="st0" d="M372,201c0,0-13,34-12,45s-3,35,10,16s11-56,11-56"/>
	<path class="st0" d="M424.5,277.5c0,0,7-1,7,2s29-6,29-6s7-3-3-4l-34,7"/>
	<polyline class="st0" points="427.5,127.5 456.5,136.5 456.5,265.5 456.5,269.5 	"/>
	<polyline class="st0" points="457.5,277.5 427.5,284.5 424.5,284.5 424.5,227.5 	"/>
	<polygon class="st0" points="251,81 330,81 329,153 251,153 	"/>
	<polygon class="st0" points="257,91 320,89 319,136 257,138 	"/>
	<polygon class="st0" points="342,78 342,153 358,151 358,78 	"/>
	<polygon class="st0" points="249,162 251,162 355,162 353,184 246,182 	"/>
</g>
<g id="Layer_3">
	<line class="st1" x1="464.5" y1="264" x2="464.5" y2="286"/>
	<line class="st1" x1="467.5" y1="264" x2="467.5" y2="291"/>
	<line class="st1" x1="470.5" y1="263" x2="470.5" y2="291"/>
	<line class="st1" x1="475.5" y1="262" x2="475.5" y2="291"/>
	<line class="st1" x1="477.5" y1="262" x2="477.5" y2="291"/>
	<line class="st1" x1="481.5" y1="264" x2="481.5" y2="291"/>
	<line class="st1" x1="485.5" y1="263" x2="485.5" y2="291"/>
	<line class="st1" x1="487.5" y1="263" x2="487.5" y2="290"/>
</g>
</svg>
